# xmcd CD database file
#
# Track frame offsets:
#	182
#	14137
#	33505
#	46590
#	63265
#	83737
#	99977
#	116460
#	128995
#	143172
#	155160
#	167972
#	185930
#
# Disc length: 2530 seconds
#
# Revision: 0
# Processed by: cddbd v1.5.2PL0 Copyright (c) Steve Scherf et al.
# Submitted via: CDex 1.51
#
DISCID=b309e00d
DTITLE=Blue in Blues - Non ci resta che il blues
DYEAR=1900
DGENRE=Blues
TTITLE0=Summer shape blues
TTITLE1=Hot pants road
TTITLE2=I ain't drunk
TTITLE3=Blues walk
TTITLE4=I'm hog for you
TTITLE5=Street walker lady ('A smuffiusa)
TTITLE6=La balla di Girolamo e Teresa
TTITLE7=Titty's blues
TTITLE8=Toccami baby!
TTITLE9=I ain't got you
TTITLE10=Hot blue
TTITLE11=Sulla strada
TTITLE12=Are you ready for the blues?
EXTD=
EXTT0=
EXTT1=
EXTT2=
EXTT3=
EXTT4=
EXTT5=
EXTT6=
EXTT7=
EXTT8=
EXTT9=
EXTT10=
EXTT11=
EXTT12=
PLAYORDER=
